<?xml version="1.0"?>
<svg xmlns="http://www.w3.org/2000/svg" xmlns:xlink="http://www.w3.org/1999/xlink" xmlns:svgjs="http://svgjs.com/svgjs" version="1.1" width="512" height="512" x="0" y="0" viewBox="0 0 496 496" style="enable-background:new 0 0 512 512" xml:space="preserve" class=""><g>
<g xmlns="http://www.w3.org/2000/svg">
	<g>
		<g>
			<path d="M496,0h-8c-65.944,0-129.544,26.656-175.92,73.312C304.904,67.576,295.936,64,286.056,64     c-11.2,0-21.736,4.36-29.656,12.288l-8.4,8.4l-8.4-8.4C231.672,68.36,221.144,64,209.944,64c-12.792,0-24.128,5.88-31.824,14.944     c-12.224-1.064-24.464,3.184-33.312,12.04c-7.92,7.92-12.288,18.456-12.288,29.656v11.88h-11.88     c-11.2,0-21.736,4.36-29.656,12.288c-8.848,8.848-13.096,21.096-12.032,33.312C69.88,185.816,64,197.144,64,209.944     c0,11.2,4.36,21.736,12.288,29.656l8.4,8.4l-8.4,8.4C68.36,264.328,64,274.856,64,286.056c0,9.872,3.576,18.848,9.312,26.016     C26.656,358.456,0,422.056,0,488v8h8c65.944,0,129.544-26.656,175.92-73.312c7.176,5.736,16.144,9.312,26.024,9.312     c11.2,0,21.736-4.36,29.656-12.288l8.4-8.4l8.4,8.4c7.92,7.92,18.456,12.288,29.656,12.288c4.48,0,8.872-0.792,13.072-2.168     C307.584,441.296,320.384,448,336,448c0,28.712,22.504,48,56,48c33.496,0,56-19.288,56-48c28.712,0,48-22.504,48-56     c0-33.496-19.288-56-48-56c0-15.616-6.704-28.416-18.168-36.872c1.376-4.2,2.168-8.584,2.168-13.072     c0-11.2-4.36-21.736-12.288-29.656l-8.4-8.4l8.4-8.4c7.92-7.92,12.288-18.456,12.288-29.656c0-9.872-3.576-18.848-9.312-26.016     C469.344,137.544,496,73.944,496,8V0z M326.44,95.224c5,0.968,9.712,3.336,13.448,7.072c4.896,4.904,7.6,11.416,7.6,18.344v27.88     h27.88c6.928,0,13.448,2.696,18.344,7.6c3.728,3.728,6.104,8.44,7.072,13.448c-3.448-0.92-7-1.568-10.728-1.568H368     c-25.008,0-49.368,13.832-65.704,25.704C314.168,177.368,328,153.008,328,128v-22.056C328,102.216,327.352,98.672,326.44,95.224z      M184,105.944C184,91.64,195.64,80,209.944,80c6.928,0,13.44,2.696,18.344,7.6L248,107.312L267.712,87.6     c4.904-4.896,11.416-7.6,18.344-7.6C300.36,80,312,91.64,312,105.944V128c0,25.912-19.104,52.592-30.088,65.824     c-2.8-1.76-5.712-3.352-8.776-4.664l14.56-50.96l-15.384-4.4l-14.576,51.016C254.552,184.328,251.32,184,248,184     s-6.552,0.328-9.728,0.824l-14.576-51.016l-15.384,4.4l14.56,50.96c-3.072,1.32-5.984,2.912-8.784,4.672     C203.088,180.624,184,153.984,184,128V105.944z M296,248c0,26.472-21.528,48-48,48s-48-21.528-48-48s21.528-48,48-48     S296,221.528,296,248z M102.296,156.12c4.904-4.896,11.416-7.6,18.344-7.6h27.88v-27.88c0-6.928,2.696-13.44,7.6-18.344     c3.728-3.728,8.44-6.112,13.448-7.08c-0.92,3.448-1.568,6.992-1.568,10.728V128c0,25.008,13.832,49.368,25.704,65.704     C177.368,181.832,153.008,168,128,168h-22.056c-3.728,0-7.272,0.648-10.712,1.56C96.192,164.552,98.568,159.84,102.296,156.12z      M87.6,267.712L107.312,248L87.6,228.288c-4.904-4.904-7.6-11.416-7.6-18.344C80,195.64,91.64,184,105.944,184H128     c25.912,0,52.592,19.104,65.824,30.088c-1.76,2.8-3.352,5.712-4.664,8.776l-50.96-14.56l-4.4,15.384l51.016,14.576     C184.328,241.448,184,244.68,184,248s0.328,6.552,0.824,9.728l-51.016,14.576l4.4,15.384l50.96-14.56     c1.32,3.072,2.912,5.984,4.672,8.784C180.624,292.912,153.984,312,128,312h-22.056C91.64,312,80,300.36,80,286.056     C80,279.128,82.696,272.616,87.6,267.712z M16.144,479.856c2-56.296,24.688-110.224,63.264-151.128     c1.464,8.368,5.368,16.256,11.568,22.464c7.92,7.92,18.456,12.288,29.656,12.288h0.568l-54.864,54.864l11.312,11.312     l54.864-54.864v0.568c0,11.2,4.36,21.736,12.288,29.656c6.208,6.208,14.096,10.112,22.464,11.576     C126.368,455.168,72.432,477.856,16.144,479.856z M169.56,400.776c-5.008-0.968-9.72-3.344-13.448-7.072     c-4.896-4.904-7.6-11.416-7.6-18.344v-27.88H120.64c-6.928,0-13.44-2.696-18.344-7.6c-3.728-3.728-6.104-8.44-7.072-13.448     c3.44,0.92,6.992,1.56,10.72,1.56H128c25.008,0,49.368-13.832,65.704-25.704C181.832,318.632,168,342.992,168,368v22.056     C168,393.784,168.648,397.328,169.56,400.776z M288,392c0,8.56,1.272,16.384,3.632,23.32c-8.424,1.744-17.688-0.688-23.92-6.92     L248,388.688L228.288,408.4c-4.904,4.904-11.416,7.6-18.344,7.6C195.64,416,184,404.36,184,390.056V368     c0-25.912,19.104-52.592,30.088-65.824c2.8,1.76,5.712,3.352,8.776,4.664l-14.56,50.96l15.384,4.4l14.576-51.016     C241.448,311.672,244.68,312,248,312s6.552-0.328,9.728-0.824l14.576,51.016l15.384-4.4l-14.56-50.96     c3.064-1.312,5.984-2.912,8.784-4.664c7.752,9.336,19.48,25.368,25.76,43.152C295.344,354.928,288,371.36,288,392z      M302.312,302.312c9.624,6.984,22.008,14.624,35.68,19.744C336.712,326.4,336,331.048,336,336c-4.952,0-9.6,0.712-13.944,1.992     C316.928,324.32,309.296,311.928,302.312,302.312z M336,432c-23.592,0-32-20.664-32-40s8.408-40,32-40     c0.72,0,1.496,0.136,2.232,0.176c3.648,13.648,11.632,26.488,22.216,35.424c-0.208,1.448-0.448,2.896-0.448,4.4     c0,10.064,4.768,18.952,12.048,24.816C362.528,425.968,348.736,432,336,432z M392,480c-19.336,0-40-8.408-40-32     c0-0.72,0.136-1.496,0.176-2.232c13.648-3.648,26.488-11.632,35.424-22.216c1.448,0.208,2.896,0.448,4.4,0.448     c10.064,0,18.952-4.768,24.824-12.056C425.96,421.472,432,435.344,432,448C432,471.592,411.336,480,392,480z M376,392     c0-8.824,7.176-16,16-16c8.824,0,16,7.176,16,16c0,8.824-7.176,16-16,16C383.176,408,376,400.824,376,392z M448,352     c23.592,0,32,20.664,32,40s-8.408,40-32,40c-0.736,0-1.512-0.136-2.264-0.176c-3.656-13.624-11.64-26.504-22.184-35.424     c0.208-1.448,0.448-2.896,0.448-4.4c0-10.064-4.768-18.952-12.048-24.816C421.472,358.032,435.264,352,448,352z M432,336     c0,0.72-0.136,1.496-0.176,2.232c-13.648,3.648-26.488,11.632-35.424,22.216c-1.448-0.208-2.888-0.448-4.4-0.448     c-10.064,0-18.944,4.76-24.816,12.048C358.032,362.528,352,348.736,352,336c0-23.592,20.664-32,40-32S432,312.408,432,336z      M408.4,228.288L388.688,248l19.712,19.712c4.896,4.904,7.6,11.416,7.6,18.344c0,1.896-0.264,3.752-0.664,5.576     C408.4,289.28,400.568,288,392,288c-20.64,0-37.072,7.344-46.672,19.672c-17.776-6.28-33.816-18.008-43.152-25.76     c1.76-2.8,3.352-5.712,4.664-8.784l50.96,14.56l4.4-15.384l-51.016-14.576C311.672,254.552,312,251.32,312,248     s-0.328-6.552-0.824-9.728l51.016-14.576l-4.4-15.384l-50.96,14.56c-1.32-3.072-2.912-5.984-4.672-8.784     C315.376,203.088,342.016,184,368,184h22.056C404.36,184,416,195.64,416,209.944C416,216.872,413.304,223.384,408.4,228.288z      M416.592,167.272c-1.464-8.368-5.368-16.256-11.568-22.464c-7.92-7.92-18.456-12.288-29.656-12.288H374.8l54.864-54.864     l-11.312-11.312l-54.864,54.864v-0.568c0-11.2-4.36-21.736-12.288-29.656c-6.216-6.216-14.104-10.112-22.464-11.568     c40.904-38.576,94.832-61.264,151.128-63.264C477.856,72.44,455.168,126.368,416.592,167.272z" fill="#e83030" data-original="#000000" style=""/>
			<rect x="433.461" y="45.335" transform="matrix(0.7071 0.7071 -0.7071 0.7071 167.877 -296.1814)" width="16" height="18.44" fill="#e83030" data-original="#000000" style=""/>
			
				<rect x="46.541" y="432.287" transform="matrix(-0.7071 -0.7071 0.7071 -0.7071 -219.0856 792.2648)" width="16" height="18.44" fill="#e83030" data-original="#000000" style=""/>
		</g>
	</g>
</g>
<g xmlns="http://www.w3.org/2000/svg">
</g>
<g xmlns="http://www.w3.org/2000/svg">
</g>
<g xmlns="http://www.w3.org/2000/svg">
</g>
<g xmlns="http://www.w3.org/2000/svg">
</g>
<g xmlns="http://www.w3.org/2000/svg">
</g>
<g xmlns="http://www.w3.org/2000/svg">
</g>
<g xmlns="http://www.w3.org/2000/svg">
</g>
<g xmlns="http://www.w3.org/2000/svg">
</g>
<g xmlns="http://www.w3.org/2000/svg">
</g>
<g xmlns="http://www.w3.org/2000/svg">
</g>
<g xmlns="http://www.w3.org/2000/svg">
</g>
<g xmlns="http://www.w3.org/2000/svg">
</g>
<g xmlns="http://www.w3.org/2000/svg">
</g>
<g xmlns="http://www.w3.org/2000/svg">
</g>
<g xmlns="http://www.w3.org/2000/svg">
</g>
</g></svg>
