<?xml version="1.0"?>
<svg xmlns="http://www.w3.org/2000/svg" xmlns:xlink="http://www.w3.org/1999/xlink" xmlns:svgjs="http://svgjs.com/svgjs" version="1.1" width="512" height="512" x="0" y="0" viewBox="0 0 512.003 512.003" style="enable-background:new 0 0 512 512" xml:space="preserve" class=""><g><g xmlns="http://www.w3.org/2000/svg"><path d="m29.395 461.396-25 25c-5.858 5.858-5.858 15.355 0 21.213 5.857 5.858 15.355 5.859 21.213 0l25-25c5.858-5.858 5.858-15.355 0-21.213s-15.356-5.858-21.213 0z" fill="#e83030" data-original="#000000" style="" class=""/><path d="m9.293 429.419 16 8c7.424 3.712 16.426.687 20.124-6.708 3.705-7.41.702-16.419-6.708-20.125l-16-8c-7.407-3.704-16.419-.702-20.124 6.708-3.705 7.41-.702 16.42 6.708 20.125z" fill="#e83030" data-original="#000000" style="" class=""/><path d="m101.417 473.294c-3.704-7.41-12.713-10.413-20.124-6.708-7.41 3.705-10.413 12.715-6.708 20.125l8 16c2.628 5.257 7.925 8.295 13.428 8.295 11.021 0 18.424-11.673 13.404-21.711z" fill="#e83030" data-original="#000000" style="" class=""/><path d="m49.771 388.746c2.625 7.874 11.129 12.102 18.974 9.487 7.859-2.62 12.106-11.115 9.487-18.974l-8-24c-2.621-7.859-11.116-12.108-18.974-9.487-7.859 2.62-12.106 11.115-9.487 18.974z" fill="#e83030" data-original="#000000" style="" class=""/><path d="m156.745 441.772-24-8c-7.857-2.619-16.354 1.628-18.974 9.487-2.619 7.859 1.628 16.354 9.487 18.974l24 8c7.858 2.619 16.353-1.628 18.974-9.487 2.619-7.859-1.628-16.354-9.487-18.974z" fill="#e83030" data-original="#000000" style="" class=""/><path d="m497.001 425.003h-50.79l-8.85-8.86c-20.638-20.618-54.009-20.691-74.72 0-11.771 11.771-30.907 11.863-42.78.01-11.79-11.8-11.8-31 0-42.79l64.32-64.32c29.24-29.25 29.24-76.83 0-106.08l-1.94-1.93c33.91-30.835 69.801-60.386 105.59-88.42 29.187-22.861 33.002-66.758 5.54-94.22-27.672-27.545-72.576-23.372-95.14 7.3-35.34 48.04-78.29 97.16-131.31 150.18-39.38 39.38-81.688 80.592-136.5 149.09-9.53 11.92-11.28 27.71-5.59 41l-63.44 63.43c-9.41 9.426-2.705 25.61 10.61 25.61 3.84 0 7.68-1.46 10.61-4.39l63.44-63.44c13.57 5.8 29.281 3.778 40.99-5.59-.051-.104 55.347-42.758 120.01-107.42 32.342-32.332 39.319-39.451 53.21-52.69l2.7 2.71c17.55 17.54 17.55 46.1 0 63.64l-64.32 64.32c-23.48 23.49-23.48 61.71.01 85.22 23.544 23.524 61.64 23.55 85.21 0 8.918-8.938 23.361-8.939 32.28 0l8.86 8.85v50.79c0 8.28 6.72 15 15 15h57c8.28 0 15-6.72 15-15v-57c0-8.281-6.719-15-15-15zm-74.609-381.531c8.623-11.709 23.61-16.17 36.78-11.86l-13.78 13.78c-9.41 9.426-2.705 25.61 10.61 25.61 3.84 0 7.68-1.46 10.61-4.39l13.78-13.79c4.097 12.648.405 27.203-11.06 36.17-23.43 18.36-44.91 35.79-64.84 52.66-14.07-7.87-25.69-19.38-33.71-33.39 18.779-21.929 35.92-43.449 51.61-64.79zm-254.091 314.68c-4.1 3.28-9.98 2.95-13.69-.76s-4.04-9.59-.76-13.69c24.79-30.99 51.11-61.19 78.52-90.12l26.04 26.04c-27.226 25.756-57.438 52.435-90.11 78.53zm111.68-99.379-26.75-26.75c32.86-33.199 59.512-58.523 96.93-100.24 8.24 11.93 18.58 22.21 30.54 30.39-46.839 41.173-69.46 65.826-100.72 96.6zm202.02 223.23h-27v-27h27z" fill="#e83030" data-original="#000000" style="" class=""/></g></g></svg>
